<svg width="50" height="157" viewBox="0 0 50 157" fill="none" xmlns="http://www.w3.org/2000/svg">
<g opacity="0.8">
<path d="M207.011 155.764C206.524 155.981 205.958 156.016 205.425 155.863C200.877 154.884 198.862 149.918 197.853 145.708C196.843 141.497 195.373 136.524 191.045 134.913C189.667 134.4 188.061 134.269 186.967 133.319C185.873 132.37 185.619 130.995 185.45 129.705C184.57 123.843 183.669 117.365 178.928 113.209C177.777 112.092 176.251 111.372 174.626 111.181C173.22 111.092 171.883 111.6 170.492 111.699C165.614 112.061 161.576 107.456 160.488 102.984C159.4 98.5124 160.187 93.9083 159.452 89.3897C158.716 84.8711 155.538 79.9465 150.635 79.3219C149.5 79.1356 148.354 79.3646 147.441 79.9597C143.808 82.5631 149.893 88.4032 148.002 92.3016C146.569 95.2422 141.338 94.6095 139.122 91.9389C136.907 89.2684 136.868 85.6952 136.926 82.4113L137.094 73.206C137.124 71.1865 137.152 69.1126 136.319 67.2112C135.485 65.3098 133.558 63.6231 131.41 63.6163C128.875 63.6003 126.76 65.7774 124.223 65.4371C122.418 65.2038 121.031 63.7625 120.093 62.2939C118.373 59.6105 117.532 56.5544 117.676 53.5136C117.743 51.9904 118.057 50.4058 117.461 48.9497C116.047 45.5113 110.35 45.2709 107.605 47.7014C104.859 50.1318 104.276 54.0149 103.839 57.5924C101.545 57.4439 98.7698 56.9283 97.8705 54.9311C96.6662 52.2769 99.9778 49.76 99.8768 46.917C99.7457 43.1634 93.8581 41.6508 90.3602 43.3902C86.8623 45.1295 84.8689 48.5825 81.9721 51.0395C79.0753 53.4964 73.9625 54.8095 71.1669 51.9747C72.2037 51.0037 73.2785 49.9586 73.5859 48.6037C73.8932 47.2488 73.0841 45.5315 71.5817 45.2759C70.6784 45.2177 69.7931 45.4295 69.0572 45.8797C59.1706 50.568 48.4661 56.1119 45.0235 65.94C44.4126 67.6793 44.0009 69.5521 42.8658 71.0197C41.7307 72.4872 39.367 73.3602 37.6173 72.3637C39.8792 70.953 42.1769 67.7712 39.8222 66.2796C38.1008 65.1831 35.9759 66.648 34.6744 68.0453C30.2098 72.847 26.2406 78.0302 22.8143 83.5328C21.8873 85.013 20.9123 86.6029 19.2449 87.3492C17.5774 88.0954 15.023 87.5188 14.524 85.8123C13.872 83.5998 16.7617 82.2742 18.6773 80.9505C22.4867 78.3201 23.3136 73.3957 25.7926 69.633C27.399 67.1886 29.7202 65.2394 31.8518 63.1827C41.7146 53.725 48.2508 41.6901 50.6678 28.5371C52.0727 20.8231 51.7973 9.80369 47.8362 2.65253L190.018 42.9036C187.886 42.5391 185.857 44.2626 184.562 45.9391C177.469 55.1426 174.84 67.0902 176.333 78.6239C177.826 90.1577 183.277 101.285 190.932 110.793C195.605 116.596 201.409 122.619 201.235 129.663C201.118 134.534 198.089 139.429 200.193 144.019C201.817 147.524 206.087 149.666 207.489 153.239C207.782 154.148 207.853 155.332 207.011 155.764Z" fill="#83DBF2"/>
</g>
<path d="M4.41213 108.948C3.73632 109.034 3.08491 109.256 2.4971 109.6C1.9093 109.945 1.39725 110.404 0.991792 110.952C0.586328 111.499 0.295822 112.123 0.137772 112.786C-0.0202775 113.448 -0.0425997 114.136 0.0721291 114.808C0.420712 116.141 1.28103 117.282 2.46623 117.984C3.65144 118.686 5.06581 118.892 6.40213 118.558C7.59206 118.2 8.61082 117.421 9.26778 116.366C9.92474 115.311 10.1749 114.053 9.97139 112.827C9.76791 111.602 9.12475 110.492 8.16225 109.706C7.19975 108.92 5.98387 108.512 4.74213 108.558" fill="#83DBF2"/>
</svg>
