<svg width="26" height="110" viewBox="0 0 26 110" fill="none" xmlns="http://www.w3.org/2000/svg">
<path d="M6.04359 104.217C2.28729 98.3204 10.5299 90.3453 6.13634 84.7804C4.89355 83.4331 3.3019 82.332 1.4759 81.5563C-1.59719 80.0256 -4.82126 78.5908 -7.30345 76.4244C-9.78565 74.2581 -11.4317 71.2456 -10.6368 68.3434C-9.84192 65.4411 -6.59492 63.2063 -5.3731 60.322C-3.68303 56.3069 -6.2432 51.8597 -9.96333 48.9685C-13.6835 46.0772 -18.4355 44.3015 -22.7077 41.9787C-26.9798 39.6559 -31.0037 36.4655 -31.9161 32.3103C-32.1025 31.4449 -32.1942 30.4846 -32.9629 29.883C-33.6023 29.4692 -34.3773 29.2216 -35.1905 29.1713C-39.1352 28.6461 -43.1406 28.4751 -47.1367 28.6613C-50.0959 28.7937 -53.0995 29.1194 -55.9916 28.5869C-58.8837 28.0545 -61.6693 26.4118 -62.2726 24.022C-62.8759 21.6322 -61.339 18.8079 -63.3531 17.1033C-64.23 16.4954 -65.2657 16.0622 -66.3807 15.837C-70.3482 14.656 -74.0689 12.1363 -74.7897 8.70715C-75.5104 5.27797 -71.8957 1.31721 -67.731 1.89713C-67.4367 1.91838 -67.1519 1.99123 -66.8955 2.11081C-66.6391 2.23039 -66.417 2.39394 -66.2442 2.59051C-66.1194 2.83507 -66.0572 3.0986 -66.0615 3.36468C-66.0659 3.63075 -66.1367 3.89366 -66.2695 4.13701C-66.8433 5.62154 -67.7637 7.07984 -67.418 8.66534C-67.3384 9.10268 -67.1191 9.51383 -66.7828 9.8568C-66.4464 10.1998 -66.005 10.4623 -65.5035 10.6175C-63.7639 11.0735 -62.4057 9.77232 -62.1984 8.4743C-62.1606 8.16496 -62.1668 7.85333 -62.217 7.54575C-62.3109 6.97489 -62.2494 6.39295 -62.037 5.84212C-61.8247 5.2913 -61.4667 4.78536 -60.989 4.36101C-60.5114 3.93665 -59.926 3.6045 -59.2754 3.38862C-58.6248 3.17274 -57.9252 3.07853 -57.2273 3.11283L-56.9128 3.14633C-56.3321 3.20987 -55.7779 3.38262 -55.2929 3.65126C-46.8469 8.21921 -60.1237 11.9891 -44.2008 16.9444C-43.5316 17.1663 -42.7867 17.1843 -42.0991 16.9951C-40.0346 16.3963 -38.3453 15.1482 -36.4724 14.2281C-34.5995 13.308 -32.1108 12.5879 -30.0505 13.3826C-27.9902 14.1773 -26.9106 16.239 -24.7152 16.5466C-23.2222 16.7489 -21.7794 16.0498 -20.2946 15.8408C-18.1358 15.5321 -15.9559 16.2713 -14.1568 17.2835C-12.0269 18.4939 -10.2497 20.0779 -8.95112 21.9232C-7.65252 23.7685 -6.86435 25.8299 -6.64246 27.9612C-6.53 29.1533 -6.59347 30.402 -5.96006 31.4841C-5.17597 32.8551 -3.50146 33.6774 -1.87749 34.3879C5.23676 37.5627 13.3794 41.0486 15.3764 47.511C18.0355 56.0833 8.17672 65.3382 12.1649 73.5654C13.4411 76.1938 15.9772 78.2396 18.0904 80.4664C20.2035 82.6932 22.0054 85.4505 21.4016 88.2493C20.4977 92.5339 14.2595 96.116 16.2156 100.137C17.6007 102.983 23.4152 103.158 25.0743 100.404C23.4548 104.325 19.3781 107.731 14.1504 107.922C12.5093 107.988 10.8819 107.677 9.45018 107.022C8.01846 106.368 6.83894 105.396 6.04359 104.217Z" fill="#83DBF2"/>
<g opacity="0.8">
<path d="M6.04359 104.217C2.28729 98.3204 10.5299 90.3453 6.13634 84.7804C4.89355 83.4331 3.3019 82.332 1.4759 81.5563C-1.59719 80.0256 -4.82126 78.5908 -7.30345 76.4244C-9.78565 74.2581 -11.4317 71.2456 -10.6368 68.3434C-9.84192 65.4411 -6.59492 63.2063 -5.3731 60.322C-3.68303 56.3069 -6.2432 51.8597 -9.96333 48.9685C-13.6835 46.0772 -18.4355 44.3015 -22.7077 41.9787C-26.9798 39.6559 -31.0037 36.4655 -31.9161 32.3103C-32.1025 31.4449 -32.1942 30.4846 -32.9629 29.883C-33.6023 29.4692 -34.3773 29.2216 -35.1905 29.1713C-39.1352 28.6461 -43.1406 28.4751 -47.1367 28.6613C-50.0959 28.7937 -53.0995 29.1194 -55.9916 28.5869C-58.8837 28.0545 -61.6693 26.4118 -62.2726 24.022C-62.8759 21.6322 -61.339 18.8079 -63.3531 17.1033C-64.23 16.4954 -65.2657 16.0622 -66.3807 15.837C-70.3482 14.656 -74.0689 12.1363 -74.7897 8.70715C-75.5104 5.27797 -71.8957 1.31721 -67.731 1.89713C-67.4367 1.91838 -67.1519 1.99123 -66.8955 2.11081C-66.6391 2.23039 -66.417 2.39394 -66.2442 2.59051C-66.1194 2.83507 -66.0572 3.0986 -66.0615 3.36468C-66.0659 3.63075 -66.1367 3.89366 -66.2695 4.13701C-66.8433 5.62154 -67.7637 7.07984 -67.418 8.66534C-67.3384 9.10268 -67.1191 9.51383 -66.7828 9.8568C-66.4464 10.1998 -66.005 10.4623 -65.5035 10.6175C-63.7639 11.0735 -62.4057 9.77232 -62.1984 8.4743C-62.1606 8.16496 -62.1668 7.85333 -62.217 7.54575C-62.3109 6.97489 -62.2494 6.39295 -62.037 5.84212C-61.8247 5.2913 -61.4667 4.78536 -60.989 4.36101C-60.5114 3.93665 -59.926 3.6045 -59.2754 3.38862C-58.6248 3.17274 -57.9252 3.07853 -57.2273 3.11283L-56.9128 3.14633C-56.3321 3.20987 -55.7779 3.38262 -55.2929 3.65126C-46.8469 8.21921 -60.1237 11.9891 -44.2008 16.9444C-43.5316 17.1663 -42.7867 17.1843 -42.0991 16.9951C-40.0346 16.3963 -38.3453 15.1482 -36.4724 14.2281C-34.5995 13.308 -32.1108 12.5879 -30.0505 13.3826C-27.9902 14.1773 -26.9106 16.239 -24.7152 16.5466C-23.2222 16.7489 -21.7794 16.0498 -20.2946 15.8408C-18.1358 15.5321 -15.9559 16.2713 -14.1568 17.2835C-12.0269 18.4939 -10.2497 20.0779 -8.95112 21.9232C-7.65252 23.7685 -6.86435 25.8299 -6.64246 27.9612C-6.53 29.1533 -6.59347 30.402 -5.96006 31.4841C-5.17597 32.8551 -3.50146 33.6774 -1.87749 34.3879C5.23676 37.5627 13.3794 41.0486 15.3764 47.511C18.0355 56.0833 8.17672 65.3382 12.1649 73.5654C13.4411 76.1938 15.9772 78.2396 18.0904 80.4664C20.2035 82.6932 22.0054 85.4505 21.4016 88.2493C20.4977 92.5339 14.2595 96.116 16.2156 100.137C17.6007 102.983 23.4152 103.158 25.0743 100.404C23.4548 104.325 19.3781 107.731 14.1504 107.922C12.5093 107.988 10.8819 107.677 9.45018 107.022C8.01846 106.368 6.83894 105.396 6.04359 104.217Z" fill="#83DBF2"/>
</g>
<path d="M10.7888 56.7328C10.8716 56.5867 10.9438 56.4368 11.0051 56.2839C11.144 55.9825 11.3283 55.5409 11.5497 54.9459C12.2171 53.325 12.6481 51.6458 12.8337 49.9438C12.9396 48.7573 12.7986 47.5663 12.4169 46.4222C12.1901 45.7846 11.8555 45.177 11.4229 44.6175C10.9874 44.0139 10.4685 43.4543 9.87628 42.95C7.3482 40.904 3.67919 39.7568 0.0335065 38.5693C-1.75607 37.9982 -3.48247 37.3026 -5.12711 36.4899C-6.65836 35.7469 -7.96153 34.7247 -8.93773 33.501C-9.77566 32.3693 -10.3646 31.1234 -10.6777 29.8202C-11.0402 28.6 -11.305 27.4375 -11.6638 26.403C-12.155 24.7254 -13.2352 23.208 -14.7696 22.0397C-15.2042 21.7433 -15.6888 21.5004 -16.2087 21.3188C-16.3862 21.2516 -16.5739 21.2041 -16.7668 21.1774C-16.0794 21.418 -15.4407 21.7429 -14.8722 22.1413C-13.4155 23.321 -12.4023 24.8226 -11.9522 26.4685C-11.6096 27.4967 -11.3611 28.6529 -11.0224 29.8868C-10.7097 31.2257 -10.1147 32.5072 -9.26425 33.6734C-8.26673 34.9427 -6.92627 36.0034 -5.34678 36.773C-3.68482 37.6026 -1.93616 38.3091 -0.12114 38.8842C3.53392 40.1379 7.16928 41.2128 9.62321 43.174C10.2035 43.656 10.7114 44.1937 11.1363 44.7759C11.5568 45.3122 11.8828 45.8954 12.1047 46.5081C12.4952 47.619 12.6492 48.7787 12.5599 49.936C12.4043 51.6218 12.022 53.2896 11.4202 54.9087L10.9561 56.245C10.8744 56.401 10.8182 56.565 10.7888 56.7328Z" fill="#83DBF2"/>
<path d="M9.67901 62.8066C9.93504 62.1362 10.0569 61.4368 10.0399 60.7358C10.1615 60.0412 10.1474 59.3358 9.99793 58.6466C9.73618 59.3159 9.61415 60.0161 9.63707 60.7173C9.51543 61.412 9.52959 62.1174 9.67901 62.8066Z" fill="#83DBF2"/>
</svg>
