<svg width="96" height="202" viewBox="0 0 96 202" fill="none" xmlns="http://www.w3.org/2000/svg">
<g opacity="0.8">
<path d="M133.135 200.456C132.612 200.377 132.123 200.105 131.765 199.692C128.528 196.443 129.588 191.208 131.066 187.143C132.545 183.077 134.06 178.127 131.355 174.467C130.493 173.301 129.232 172.334 128.847 170.954C128.461 169.575 129.007 168.287 129.576 167.118C132.07 161.737 134.886 155.831 133.238 149.818C132.897 148.268 132.026 146.85 130.782 145.822C129.665 144.997 128.275 144.708 127.066 144.049C122.819 141.748 122.001 135.734 123.558 131.408C125.115 127.082 128.301 123.646 130.176 119.468C132.051 115.291 132.122 109.469 128.397 106.328C127.558 105.566 126.48 105.146 125.395 105.157C120.948 105.398 122.785 113.539 119.072 115.794C116.264 117.492 112.271 114.169 111.901 110.749C111.532 107.329 113.465 104.316 115.32 101.596L120.523 93.9756C121.658 92.3001 122.823 90.5781 123.177 88.5407C123.531 86.5032 122.86 84.0616 121.081 82.9088C118.985 81.5417 116.033 82.2361 114.114 80.5967C112.745 79.4375 112.387 77.4899 112.415 75.7585C112.465 72.593 113.448 69.5842 115.24 67.1141C116.134 65.8742 117.265 64.7142 117.572 63.1767C118.29 59.5417 113.694 56.2984 110.078 56.8684C106.463 57.4383 103.843 60.3795 101.513 63.1426C99.6898 61.7931 97.6705 59.8797 98.0228 57.7267C98.4833 54.8606 102.616 54.5206 104.096 52.0854C106.052 48.8714 101.998 44.461 98.1382 44.0503C94.2784 43.6395 90.7246 45.4673 86.9689 45.9786C83.2133 46.4899 78.2478 44.8599 77.4869 40.9929C78.8816 40.7332 80.3485 40.4316 81.3489 39.4609C82.3493 38.4902 82.6223 36.6198 81.5161 35.6035C80.7984 35.0725 79.9472 34.7771 79.0888 34.7614C68.3047 33.4096 56.3711 32.3378 48.1077 38.7316C46.6439 39.8622 45.2721 41.2111 43.5227 41.8342C41.7734 42.4574 39.3315 41.9266 38.4275 40.1577C41.0808 40.1837 44.7379 38.7455 43.6042 36.239C42.7787 34.4014 40.2094 34.4939 38.3606 34.9694C32.014 36.6075 25.8686 38.8296 19.9982 41.6092C18.4146 42.354 16.7309 43.1652 14.9365 42.9C13.1421 42.6347 11.3393 40.7879 11.864 39.0921C12.5399 36.8908 15.6673 37.3234 17.9852 37.2375C22.5937 37.0682 25.9888 33.385 30.116 31.5571C32.7938 30.3673 35.7924 29.9741 38.6929 29.3894C52.0808 26.7337 64.1256 20.1432 73.3668 10.4169C78.776 4.7059 84.6091 -4.67092 85.2554 -12.7756L181.115 96.8521C179.546 95.4085 176.914 95.7689 174.917 96.4812C163.968 100.403 155.214 109.007 150.108 119.464C145.003 129.922 143.406 142.153 144.528 154.203C145.215 161.559 146.719 169.702 142.699 175.51C139.922 179.527 134.717 182.01 133.938 186.978C133.357 190.781 135.723 194.855 134.92 198.596C134.664 199.513 134.072 200.543 133.135 200.456Z" fill="#83DBF2"/>
</g>
</svg>
