<svg width="169" height="237" viewBox="0 0 169 237" fill="none" xmlns="http://www.w3.org/2000/svg">
<path d="M205.585 0.777439C204.933 1.11435 204.263 1.69744 203.708 2.41079C198.841 8.2097 198.538 14.7774 199.091 19.5882C199.644 24.3989 199.974 30.3833 195.621 36.4996C194.235 38.4484 192.429 40.3055 191.55 42.3308C190.671 44.356 190.939 45.8453 191.271 47.1657C192.649 53.2943 194.255 59.9881 190.464 68.8001C189.587 71.0348 188.114 73.3251 186.31 75.2574C184.719 76.8611 182.962 77.8639 181.31 79.2854C175.514 84.2575 172.72 92.7031 173.289 97.8295C173.858 102.956 176.652 106.165 177.647 110.951C178.643 115.737 176.977 123.53 171.554 129.401C170.316 130.796 168.894 131.839 167.594 132.304C162.322 133.947 166.981 122.192 163.197 120.803C160.334 119.763 154.535 125.996 153.061 130.757C151.587 135.518 153.004 138.712 154.414 141.548L158.372 149.49C159.232 151.239 160.113 153.039 159.926 155.621C159.738 158.203 158.197 161.782 155.711 164.119C152.781 166.884 149.442 167.257 146.643 170.309C144.648 172.473 143.632 175.25 143.145 177.564C142.251 181.798 142.527 185.407 143.937 187.935C144.638 189.206 145.648 190.265 145.554 192.195C145.323 196.764 138.823 203.157 134.649 203.991C130.476 204.824 128.213 202.03 126.244 199.347C123.648 201.967 120.645 205.433 120.42 208.171C120.111 211.82 124.975 210.448 126.021 213.067C127.404 216.522 121.204 224.244 116.442 226.504C111.679 228.764 107.959 227.879 103.599 228.854C99.2397 229.828 92.7816 234.217 90.7031 239.751C92.301 239.483 93.9731 239.24 94.8831 240.102C95.7931 240.964 95.5582 243.357 93.9228 245.213C92.9004 246.244 91.7886 247.018 90.7522 247.419C77.3853 254.008 62.7213 260.728 54.7155 255.79C53.2967 254.918 52.0542 253.712 50.1395 253.648C48.2248 253.584 45.1304 255.378 43.5115 258.156C46.7079 256.947 50.67 257.262 48.553 261.133C47.0077 263.969 43.9478 264.981 41.8692 265.16C34.7352 265.766 28.0189 265.498 21.8008 264.359C20.122 264.059 18.3426 263.713 16.1064 264.864C13.8701 266.014 11.1476 269.295 11.2676 271.342C11.4172 274.002 15.3058 272.037 18.0656 271.127C23.5529 269.315 26.5242 272.764 30.9338 273.395C33.7937 273.809 37.279 273.011 40.5886 272.514C55.8783 270.16 68.3692 273.689 76.5469 282.675C81.3282 287.958 85.5153 297.982 83.8521 308.59L232.056 118.813C229.736 121.448 226.681 122.128 224.495 122.054C212.518 121.627 204.588 113.935 201.6 102.137C198.613 90.3388 200.376 74.6041 205.353 57.9096C208.392 47.7188 212.651 36.1062 209.569 30.0781C207.441 25.9071 201.933 24.8725 202.492 18.5393C202.939 13.6842 207.009 7.16124 207.17 2.4874C207.139 1.36791 206.737 0.245542 205.585 0.777439Z" fill="#97E1F5"/>
<rect x="189.595" y="173" width="39" height="83.0593" transform="rotate(40.1855 189.595 173)" fill="#A7E5F7"/>
<path d="M90.3253 185.292C91.8353 182.162 93.2253 178.582 90.3253 175.122C89.5423 174.126 88.4469 173.421 87.2153 173.122C86.5307 172.939 85.8071 172.962 85.1359 173.19C84.4648 173.418 83.8764 173.84 83.4453 174.402C82.4453 175.952 83.2353 177.992 84.7653 179.752C86.3694 181.814 88.2198 183.671 90.2753 185.282" fill="#83DBF2"/>
</svg>
