<svg width="121" height="110" viewBox="0 0 121 110" fill="none" xmlns="http://www.w3.org/2000/svg">
<g opacity="0.8">
<path d="M-30 18.874C-20.3817 17.2343 -9.91256 15.6633 -1.75661 18.9945C7.99279 22.9609 10.9859 32.3991 13.9366 40.7772C16.8873 49.1554 22.0589 58.3432 33.0185 60.089C35.5566 60.4933 38.3053 60.4634 40.6112 61.3063C45.8553 63.2422 46.1466 70.0451 41.1023 73.0816C40.4793 77.1566 48.3529 77.8487 53.0175 75.6125C57.682 73.3762 61.8006 69.5909 67.0052 69.3037C71.8114 69.0316 75.7206 72.162 76.3554 75.7966C76.9902 79.4312 74.9024 83.3278 71.8873 86.4675C68.2584 90.1109 63.4483 92.9597 58.051 94.662C52.6537 96.3643 46.9055 96.8456 41.5163 96.0465C36.1941 95.1198 31.4861 93.0025 27.9365 89.9394C24.3869 86.8763 22.1406 82.9924 21.4574 78.7369C20.6602 73.2527 22.0779 66.5687 16.777 63.2364C13.0428 60.8925 7.09887 61.1641 3.63013 58.5952C-1.63686 54.7297 1.85334 47.5545 2.69823 41.6008C4.56034 28.4867 -10.9721 17.0549 -27.7969 19.17" fill="#83DBF2"/>
</g>
<path d="M98.7865 58.6278C101.753 60.5106 105.597 59.9222 109.083 59.0615C111.034 58.6572 112.939 57.9463 114.737 56.9514C116.545 55.9329 117.98 54.2343 118.76 52.1909C119.13 51.1693 119.218 50.0695 119.014 49.033C118.809 47.9966 118.32 47.071 117.611 46.3752C116.074 45.0565 113.716 45.2044 111.893 46.296C110.117 47.5063 108.632 49.1833 107.586 51.1606C107.062 52.1634 106.437 53.1047 105.726 53.9665C103.725 56.1456 101.515 58.7639 98.7865 58.6278Z" fill="#83DBF2"/>
</svg>
