<svg width="110" height="195" viewBox="0 0 110 195" fill="none" xmlns="http://www.w3.org/2000/svg">
<g opacity="0.8">
<path d="M63.7083 193.973C64.1325 193.657 64.4353 193.186 64.5565 192.653C65.8793 188.263 62.4774 184.146 59.2571 181.257C56.0367 178.368 52.3666 174.717 53.0276 170.214C53.2376 168.779 53.8937 167.332 53.5834 165.934C53.2732 164.535 52.1852 163.657 51.1317 162.894C46.3956 159.325 41.1282 155.443 39.7475 149.363C39.3174 147.835 39.4174 146.174 40.0295 144.681C40.6258 143.427 41.7153 142.517 42.4711 141.366C45.1319 137.334 43.0188 131.645 39.6062 128.564C36.1936 125.482 31.7642 123.954 28.1414 121.153C24.5186 118.353 21.7112 113.253 23.5162 108.726C23.8972 107.659 24.6495 106.78 25.6116 106.278C29.647 104.395 31.8638 112.44 36.2023 112.679C39.4784 112.853 41.4338 108.04 40.1479 104.849C38.8619 101.659 35.736 99.9132 32.8187 98.3887L24.6377 94.1203C22.8464 93.178 21.0078 92.2082 19.7348 90.5784C18.4618 88.9485 17.903 86.4788 18.9288 84.6233C20.1323 82.4299 23.0637 81.6504 23.9825 79.3004C24.644 77.6325 24.0418 75.746 23.2003 74.2326C21.6647 71.4641 19.3793 69.274 16.6344 67.9404C15.2618 67.2681 13.7171 66.7784 12.7216 65.5672C10.3751 62.6998 12.8997 57.6728 16.3569 56.4712C19.814 55.2696 23.5109 56.6286 26.8688 57.9668C27.8402 55.9174 28.7191 53.278 27.3935 51.5454C25.6363 49.2348 21.8311 50.8832 19.3779 49.4331C16.1378 47.5207 17.6343 41.7199 20.8447 39.5382C24.0552 37.3565 28.051 37.2932 31.6042 35.9738C35.1575 34.6543 38.7683 30.876 37.6164 27.107C36.264 27.5354 34.8282 27.9609 33.4883 27.5764C32.1484 27.1918 31.0259 25.671 31.5225 24.2533C31.9051 23.4466 32.5166 22.7849 33.2662 22.3663C42.1398 16.0907 52.159 9.52004 62.4607 11.2636C64.2846 11.5707 66.1303 12.1136 67.9669 11.8386C69.8034 11.5636 71.7067 9.94436 71.6701 7.95816C69.3425 9.23188 65.4392 9.6874 65.2574 6.94241C65.1193 4.93268 67.4288 3.80309 69.2835 3.35096C75.6528 1.8039 82.1201 0.866798 88.6076 0.5509C90.3553 0.461313 92.2227 0.382971 93.6801 -0.696788C95.1376 -1.77655 95.8569 -4.25513 94.5949 -5.50338C92.9611 -7.12616 90.4069 -5.27038 88.3221 -4.25353C84.178 -2.23043 79.4476 -3.87829 74.9461 -3.54489C72.0236 -3.33189 69.1936 -2.26516 66.3601 -1.41352C53.301 2.5553 39.5718 2.42073 26.8369 -1.80091C19.3742 -4.28773 9.80976 -9.80772 5.41935 -16.6508L-27.4441 125.22C-26.741 123.207 -24.2501 122.284 -22.1526 121.971C-10.6476 120.268 1.12832 123.73 10.5606 130.546C19.993 137.362 27.1669 147.396 31.8571 158.553C34.7192 165.363 37.2315 173.254 43.5141 176.481C47.8566 178.715 53.6182 178.451 56.6466 182.465C58.9514 185.545 58.7854 190.254 61.257 193.175C61.9152 193.863 62.9234 194.492 63.7083 193.973Z" fill="#83DBF2"/>
</g>
</svg>
