<svg width="198" height="245" viewBox="0 0 198 245" fill="none" xmlns="http://www.w3.org/2000/svg">
<path d="M117.064 36.9972C118.748 39.0639 121.785 39.5985 124.38 39.0389C126.952 38.3232 129.373 37.1479 131.526 35.5699C129.136 36.3827 126.536 36.3261 124.184 35.41C121.832 34.494 119.879 32.7772 118.668 30.5622C117.51 28.2774 117.241 25.6539 116.34 23.2572C115.439 20.8605 113.538 18.5141 110.981 18.3814C107.911 18.2254 105.393 21.3017 102.318 21.1903C98.0979 21.0355 96.468 15.4761 92.8926 13.2189C88.9268 10.7072 83.7025 12.8607 79.8219 15.5062C75.7177 18.1826 72.1645 21.6208 69.3547 25.6348C68.497 26.7593 67.9459 28.0873 67.7553 29.4886C67.7472 30.7902 68.1832 32.0556 68.9913 33.0759C69.7994 34.0961 70.9313 34.8103 72.2001 35.1005C73.4773 35.3419 74.7934 35.2797 76.0421 34.9188C77.2908 34.5578 78.4372 33.9083 79.3886 33.0226C82.4096 30.3501 83.9674 25.9539 87.6806 24.3845C89.2965 23.7858 91.0765 23.8042 92.6797 24.4362C94.2829 25.0681 95.5966 26.2693 96.3694 27.8096C96.6687 28.7463 97.0923 29.6386 97.6288 30.4626C98.9849 32.0782 101.508 31.8263 103.606 31.5054C106.258 31.0332 108.986 31.2632 111.521 32.1724C113.55 33.56 115.41 35.1792 117.064 36.9972Z" fill="#83DBF2"/>
<path d="M54.9305 73.275C53.0305 73.275 51.4055 72.9 50.0555 72.15C48.7055 71.4 47.6638 70.35 46.9305 69C46.2138 67.6333 45.8555 66.025 45.8555 64.175C45.8555 62.7917 46.0555 61.55 46.4555 60.45C46.8721 59.3333 47.4721 58.3833 48.2555 57.6C49.0388 56.8 49.9888 56.1833 51.1055 55.75C52.2388 55.3167 53.5138 55.1 54.9305 55.1C55.7638 55.1 56.6055 55.2083 57.4555 55.425C58.3221 55.625 59.0721 55.9167 59.7055 56.3C60.1221 56.5333 60.4055 56.825 60.5555 57.175C60.7055 57.525 60.7471 57.875 60.6805 58.225C60.6305 58.575 60.4888 58.875 60.2555 59.125C60.0388 59.375 59.7638 59.5333 59.4305 59.6C59.0971 59.6667 58.7221 59.5917 58.3055 59.375C57.8055 59.075 57.2805 58.8583 56.7305 58.725C56.1805 58.5917 55.6221 58.525 55.0555 58.525C53.9388 58.525 52.9971 58.75 52.2305 59.2C51.4805 59.6333 50.9138 60.2667 50.5305 61.1C50.1471 61.9333 49.9555 62.9583 49.9555 64.175C49.9555 65.375 50.1471 66.4 50.5305 67.25C50.9138 68.1 51.4805 68.75 52.2305 69.2C52.9971 69.6333 53.9388 69.85 55.0555 69.85C55.5888 69.85 56.1305 69.7833 56.6805 69.65C57.2471 69.5167 57.7888 69.3083 58.3055 69.025C58.7388 68.8083 59.1221 68.7333 59.4555 68.8C59.8055 68.85 60.0888 69 60.3055 69.25C60.5388 69.4833 60.6805 69.7667 60.7305 70.1C60.7971 70.4333 60.7638 70.7667 60.6305 71.1C60.4971 71.4333 60.2471 71.7167 59.8805 71.95C59.2638 72.3667 58.5055 72.6917 57.6055 72.925C56.7055 73.1583 55.8138 73.275 54.9305 73.275ZM68.1664 73.275C66.8497 73.275 65.6997 73.0167 64.7164 72.5C63.7497 71.9833 62.9997 71.2417 62.4664 70.275C61.9331 69.3083 61.6664 68.1667 61.6664 66.85C61.6664 65.8667 61.8164 64.9833 62.1164 64.2C62.4164 63.4167 62.8497 62.75 63.4164 62.2C63.9997 61.6333 64.6914 61.2083 65.4914 60.925C66.2914 60.625 67.1831 60.475 68.1664 60.475C69.4831 60.475 70.6247 60.7333 71.5914 61.25C72.5747 61.7667 73.3331 62.5 73.8664 63.45C74.4164 64.4 74.6914 65.5333 74.6914 66.85C74.6914 67.85 74.5331 68.7417 74.2164 69.525C73.9164 70.3083 73.4831 70.9833 72.9164 71.55C72.3497 72.1167 71.6581 72.55 70.8414 72.85C70.0414 73.1333 69.1497 73.275 68.1664 73.275ZM68.1664 70.45C68.7164 70.45 69.1914 70.3167 69.5914 70.05C69.9914 69.7833 70.3081 69.3917 70.5414 68.875C70.7747 68.3417 70.8914 67.6667 70.8914 66.85C70.8914 65.6333 70.6414 64.7417 70.1414 64.175C69.6414 63.5917 68.9831 63.3 68.1664 63.3C67.6331 63.3 67.1581 63.425 66.7414 63.675C66.3414 63.925 66.0247 64.3167 65.7914 64.85C65.5747 65.3667 65.4664 66.0333 65.4664 66.85C65.4664 68.0667 65.7164 68.975 66.2164 69.575C66.7164 70.1583 67.3664 70.45 68.1664 70.45ZM78.8881 77.725C78.2714 77.725 77.7964 77.5583 77.4631 77.225C77.1464 76.9083 76.9881 76.4333 76.9881 75.8V62.425C76.9881 61.8083 77.1464 61.3417 77.4631 61.025C77.7964 60.6917 78.2548 60.525 78.8381 60.525C79.4548 60.525 79.9214 60.6917 80.2381 61.025C80.5548 61.3417 80.7131 61.8083 80.7131 62.425V64.125L80.4381 63.15C80.6881 62.35 81.1881 61.7083 81.9381 61.225C82.7048 60.725 83.5798 60.475 84.5631 60.475C85.6298 60.475 86.5631 60.7333 87.3631 61.25C88.1798 61.7667 88.8131 62.5 89.2631 63.45C89.7131 64.4 89.9381 65.5333 89.9381 66.85C89.9381 68.1667 89.7131 69.3083 89.2631 70.275C88.8131 71.2417 88.1881 71.9833 87.3881 72.5C86.5881 73.0167 85.6464 73.275 84.5631 73.275C83.5964 73.275 82.7381 73.0417 81.9881 72.575C81.2381 72.0917 80.7298 71.4667 80.4631 70.7H80.7631V75.8C80.7631 76.4333 80.5964 76.9083 80.2631 77.225C79.9464 77.5583 79.4881 77.725 78.8881 77.725ZM83.4381 70.45C83.9714 70.45 84.4381 70.3167 84.8381 70.05C85.2548 69.7833 85.5714 69.3917 85.7881 68.875C86.0214 68.3417 86.1381 67.6667 86.1381 66.85C86.1381 65.6333 85.8881 64.7417 85.3881 64.175C84.8881 63.5917 84.2381 63.3 83.4381 63.3C82.9048 63.3 82.4298 63.425 82.0131 63.675C81.6131 63.925 81.2964 64.3167 81.0631 64.85C80.8298 65.3667 80.7131 66.0333 80.7131 66.85C80.7131 68.0667 80.9631 68.975 81.4631 69.575C81.9631 70.1583 82.6214 70.45 83.4381 70.45ZM96.3969 73.275C95.4969 73.275 94.6885 73.1 93.9719 72.75C93.2552 72.4 92.6969 71.925 92.2969 71.325C91.8969 70.725 91.6969 70.05 91.6969 69.3C91.6969 68.4 91.9302 67.6917 92.3969 67.175C92.8635 66.6417 93.6219 66.2667 94.6719 66.05C95.7219 65.8167 97.1135 65.7 98.8469 65.7H100.172V67.65H98.8719C98.0219 67.65 97.3302 67.7 96.7969 67.8C96.2802 67.8833 95.9052 68.0333 95.6719 68.25C95.4552 68.4667 95.3469 68.7667 95.3469 69.15C95.3469 69.6167 95.5052 70 95.8219 70.3C96.1552 70.6 96.6302 70.75 97.2469 70.75C97.7302 70.75 98.1552 70.6417 98.5219 70.425C98.9052 70.1917 99.2052 69.8833 99.4219 69.5C99.6385 69.1 99.7469 68.65 99.7469 68.15V65.275C99.7469 64.5417 99.5802 64.025 99.2469 63.725C98.9135 63.4083 98.3469 63.25 97.5469 63.25C97.0969 63.25 96.6052 63.3083 96.0719 63.425C95.5552 63.525 94.9802 63.7 94.3469 63.95C93.9802 64.1167 93.6552 64.1583 93.3719 64.075C93.0885 63.975 92.8719 63.8083 92.7219 63.575C92.5719 63.325 92.4969 63.0583 92.4969 62.775C92.4969 62.475 92.5802 62.1917 92.7469 61.925C92.9135 61.6417 93.1885 61.4333 93.5719 61.3C94.3552 60.9833 95.0885 60.7667 95.7719 60.65C96.4719 60.5333 97.1135 60.475 97.6969 60.475C98.9802 60.475 100.03 60.6667 100.847 61.05C101.68 61.4167 102.305 61.9917 102.722 62.775C103.139 63.5417 103.347 64.5333 103.347 65.75V71.3C103.347 71.9167 103.197 72.3917 102.897 72.725C102.597 73.0583 102.164 73.225 101.597 73.225C101.03 73.225 100.589 73.0583 100.272 72.725C99.9719 72.3917 99.8219 71.9167 99.8219 71.3V70.375L99.9969 70.525C99.8969 71.0917 99.6802 71.5833 99.3469 72C99.0302 72.4 98.6219 72.7167 98.1219 72.95C97.6219 73.1667 97.0469 73.275 96.3969 73.275ZM110.588 73.275C109.105 73.275 107.996 72.8667 107.263 72.05C106.53 71.2167 106.163 69.9833 106.163 68.35V57.075C106.163 56.4417 106.321 55.9667 106.638 55.65C106.971 55.3167 107.446 55.15 108.063 55.15C108.663 55.15 109.121 55.3167 109.438 55.65C109.771 55.9667 109.938 56.4417 109.938 57.075V68.2C109.938 68.8833 110.08 69.3917 110.363 69.725C110.663 70.0417 111.055 70.2 111.538 70.2C111.671 70.2 111.796 70.1917 111.913 70.175C112.03 70.1583 112.155 70.15 112.288 70.15C112.555 70.1167 112.738 70.2 112.838 70.4C112.955 70.5833 113.013 70.9583 113.013 71.525C113.013 72.025 112.913 72.4083 112.713 72.675C112.513 72.925 112.205 73.0917 111.788 73.175C111.621 73.1917 111.43 73.2083 111.213 73.225C110.996 73.2583 110.788 73.275 110.588 73.275ZM120.341 73.275C119.008 73.275 117.841 73.0167 116.841 72.5C115.858 71.9667 115.099 71.2167 114.566 70.25C114.033 69.2833 113.766 68.1417 113.766 66.825C113.766 65.8417 113.916 64.9583 114.216 64.175C114.516 63.3917 114.949 62.725 115.516 62.175C116.099 61.625 116.799 61.2083 117.616 60.925C118.433 60.625 119.341 60.475 120.341 60.475C120.858 60.475 121.408 60.5417 121.991 60.675C122.574 60.7917 123.149 61 123.716 61.3C124.049 61.45 124.274 61.6667 124.391 61.95C124.524 62.2167 124.574 62.5 124.541 62.8C124.508 63.0833 124.399 63.3417 124.216 63.575C124.049 63.7917 123.833 63.9417 123.566 64.025C123.299 64.0917 122.999 64.0417 122.666 63.875C122.349 63.6917 122.016 63.5583 121.666 63.475C121.333 63.3917 121.016 63.35 120.716 63.35C120.216 63.35 119.774 63.4333 119.391 63.6C119.008 63.75 118.683 63.975 118.416 64.275C118.166 64.5583 117.966 64.9167 117.816 65.35C117.683 65.7833 117.616 66.2833 117.616 66.85C117.616 67.95 117.883 68.8167 118.416 69.45C118.966 70.0667 119.733 70.375 120.716 70.375C121.016 70.375 121.333 70.3417 121.666 70.275C121.999 70.1917 122.333 70.0583 122.666 69.875C122.999 69.7083 123.299 69.6667 123.566 69.75C123.833 69.8333 124.041 69.9917 124.191 70.225C124.358 70.4417 124.449 70.7 124.466 71C124.499 71.2833 124.449 71.5667 124.316 71.85C124.199 72.1167 123.983 72.325 123.666 72.475C123.099 72.7583 122.533 72.9583 121.966 73.075C121.399 73.2083 120.858 73.275 120.341 73.275ZM128.204 73.225C127.588 73.225 127.113 73.0583 126.779 72.725C126.463 72.3917 126.304 71.9167 126.304 71.3V57.075C126.304 56.4417 126.463 55.9667 126.779 55.65C127.113 55.3167 127.588 55.15 128.204 55.15C128.804 55.15 129.263 55.3167 129.579 55.65C129.913 55.9667 130.079 56.4417 130.079 57.075V63.025H129.729C130.113 62.2083 130.679 61.5833 131.429 61.15C132.196 60.7 133.063 60.475 134.029 60.475C135.013 60.475 135.821 60.6667 136.454 61.05C137.088 61.4167 137.563 61.9833 137.879 62.75C138.196 63.5 138.354 64.4583 138.354 65.625V71.3C138.354 71.9167 138.188 72.3917 137.854 72.725C137.538 73.0583 137.071 73.225 136.454 73.225C135.854 73.225 135.388 73.0583 135.054 72.725C134.738 72.3917 134.579 71.9167 134.579 71.3V65.8C134.579 64.95 134.421 64.3417 134.104 63.975C133.804 63.5917 133.338 63.4 132.704 63.4C131.904 63.4 131.263 63.65 130.779 64.15C130.313 64.65 130.079 65.3167 130.079 66.15V71.3C130.079 72.5833 129.454 73.225 128.204 73.225ZM143.073 73.2C142.456 73.2 141.981 73.025 141.648 72.675C141.331 72.3083 141.173 71.8 141.173 71.15V62.6C141.173 61.9333 141.331 61.425 141.648 61.075C141.981 60.7083 142.456 60.525 143.073 60.525C143.673 60.525 144.131 60.7083 144.448 61.075C144.781 61.425 144.948 61.9333 144.948 62.6V71.15C144.948 71.8 144.789 72.3083 144.473 72.675C144.156 73.025 143.689 73.2 143.073 73.2ZM143.073 58.475C142.373 58.475 141.831 58.3167 141.448 58C141.081 57.6667 140.898 57.2 140.898 56.6C140.898 55.9833 141.081 55.5167 141.448 55.2C141.831 54.8667 142.373 54.7 143.073 54.7C143.773 54.7 144.306 54.8667 144.673 55.2C145.039 55.5167 145.223 55.9833 145.223 56.6C145.223 57.2 145.039 57.6667 144.673 58C144.306 58.3167 143.773 58.475 143.073 58.475ZM43.9402 107.275C43.2402 107.275 42.5236 107.217 41.7902 107.1C41.0736 107 40.3819 106.85 39.7152 106.65C39.0652 106.45 38.4819 106.2 37.9652 105.9C37.5986 105.7 37.3402 105.442 37.1902 105.125C37.0402 104.792 36.9819 104.458 37.0152 104.125C37.0652 103.792 37.1902 103.5 37.3902 103.25C37.6069 102.983 37.8736 102.817 38.1902 102.75C38.5236 102.667 38.8902 102.725 39.2902 102.925C39.9736 103.308 40.7152 103.592 41.5152 103.775C42.3319 103.958 43.1402 104.05 43.9402 104.05C45.1569 104.05 46.0236 103.867 46.5402 103.5C47.0569 103.117 47.3152 102.642 47.3152 102.075C47.3152 101.592 47.1319 101.208 46.7652 100.925C46.3986 100.642 45.7569 100.4 44.8402 100.2L42.0152 99.6C40.4152 99.2667 39.2236 98.7 38.4402 97.9C37.6736 97.0833 37.2902 96.0167 37.2902 94.7C37.2902 93.8667 37.4652 93.1083 37.8152 92.425C38.1652 91.7417 38.6569 91.15 39.2902 90.65C39.9236 90.15 40.6736 89.7667 41.5402 89.5C42.4236 89.2333 43.3902 89.1 44.4402 89.1C45.3736 89.1 46.2902 89.2167 47.1902 89.45C48.0902 89.6667 48.8819 89.9917 49.5652 90.425C49.8986 90.625 50.1236 90.8833 50.2402 91.2C50.3736 91.5 50.4152 91.8083 50.3652 92.125C50.3319 92.425 50.2069 92.6917 49.9902 92.925C49.7902 93.1583 49.5319 93.3083 49.2152 93.375C48.8986 93.4417 48.5152 93.3667 48.0652 93.15C47.5152 92.8667 46.9319 92.6583 46.3152 92.525C45.6986 92.3917 45.0652 92.325 44.4152 92.325C43.7152 92.325 43.1152 92.4167 42.6152 92.6C42.1319 92.7833 41.7569 93.0417 41.4902 93.375C41.2402 93.7083 41.1152 94.0917 41.1152 94.525C41.1152 95.0083 41.2902 95.4 41.6402 95.7C41.9902 96 42.5986 96.2417 43.4652 96.425L46.2902 97.025C47.9236 97.375 49.1402 97.9417 49.9402 98.725C50.7402 99.4917 51.1402 100.508 51.1402 101.775C51.1402 102.608 50.9736 103.367 50.6402 104.05C50.3069 104.717 49.8236 105.292 49.1902 105.775C48.5569 106.258 47.7986 106.633 46.9152 106.9C46.0319 107.15 45.0402 107.275 43.9402 107.275ZM57.4809 107.275C56.5809 107.275 55.7725 107.1 55.0559 106.75C54.3392 106.4 53.7809 105.925 53.3809 105.325C52.9809 104.725 52.7809 104.05 52.7809 103.3C52.7809 102.4 53.0142 101.692 53.4809 101.175C53.9475 100.642 54.7059 100.267 55.7559 100.05C56.8059 99.8167 58.1975 99.7 59.9309 99.7H61.2559V101.65H59.9559C59.1059 101.65 58.4142 101.7 57.8809 101.8C57.3642 101.883 56.9892 102.033 56.7559 102.25C56.5392 102.467 56.4309 102.767 56.4309 103.15C56.4309 103.617 56.5892 104 56.9059 104.3C57.2392 104.6 57.7142 104.75 58.3309 104.75C58.8142 104.75 59.2392 104.642 59.6059 104.425C59.9892 104.192 60.2892 103.883 60.5059 103.5C60.7225 103.1 60.8309 102.65 60.8309 102.15V99.275C60.8309 98.5417 60.6642 98.025 60.3309 97.725C59.9975 97.4083 59.4309 97.25 58.6309 97.25C58.1809 97.25 57.6892 97.3083 57.1559 97.425C56.6392 97.525 56.0642 97.7 55.4309 97.95C55.0642 98.1167 54.7392 98.1583 54.4559 98.075C54.1725 97.975 53.9559 97.8083 53.8059 97.575C53.6559 97.325 53.5809 97.0583 53.5809 96.775C53.5809 96.475 53.6642 96.1917 53.8309 95.925C53.9975 95.6417 54.2725 95.4333 54.6559 95.3C55.4392 94.9833 56.1725 94.7667 56.8559 94.65C57.5559 94.5333 58.1975 94.475 58.7809 94.475C60.0642 94.475 61.1142 94.6667 61.9309 95.05C62.7642 95.4167 63.3892 95.9917 63.8059 96.775C64.2225 97.5417 64.4309 98.5333 64.4309 99.75V105.3C64.4309 105.917 64.2809 106.392 63.9809 106.725C63.6809 107.058 63.2475 107.225 62.6809 107.225C62.1142 107.225 61.6725 107.058 61.3559 106.725C61.0559 106.392 60.9059 105.917 60.9059 105.3V104.375L61.0809 104.525C60.9809 105.092 60.7642 105.583 60.4309 106C60.1142 106.4 59.7059 106.717 59.2059 106.95C58.7059 107.167 58.1309 107.275 57.4809 107.275ZM69.1469 107.225C68.5302 107.225 68.0552 107.058 67.7219 106.725C67.4052 106.392 67.2469 105.917 67.2469 105.3V96.425C67.2469 95.8083 67.4052 95.3417 67.7219 95.025C68.0552 94.6917 68.5135 94.525 69.0969 94.525C69.6969 94.525 70.1552 94.6917 70.4719 95.025C70.7885 95.3417 70.9469 95.8083 70.9469 96.425V97.85L70.6719 97.025C71.0552 96.2083 71.6219 95.5833 72.3719 95.15C73.1385 94.7 74.0052 94.475 74.9719 94.475C75.9552 94.475 76.7635 94.6667 77.3969 95.05C78.0302 95.4167 78.5052 95.9833 78.8219 96.75C79.1385 97.5 79.2969 98.4583 79.2969 99.625V105.3C79.2969 105.917 79.1302 106.392 78.7969 106.725C78.4802 107.058 78.0135 107.225 77.3969 107.225C76.7969 107.225 76.3302 107.058 75.9969 106.725C75.6802 106.392 75.5219 105.917 75.5219 105.3V99.8C75.5219 98.95 75.3635 98.3417 75.0469 97.975C74.7469 97.5917 74.2802 97.4 73.6469 97.4C72.8469 97.4 72.2052 97.65 71.7219 98.15C71.2552 98.65 71.0219 99.3167 71.0219 100.15V105.3C71.0219 106.583 70.3969 107.225 69.1469 107.225ZM91.4475 107C90.7975 107 90.2975 106.825 89.9475 106.475C89.5975 106.125 89.4225 105.625 89.4225 104.975V91.4C89.4225 90.75 89.5975 90.25 89.9475 89.9C90.2975 89.55 90.7975 89.375 91.4475 89.375H96.3225C99.3391 89.375 101.664 90.1417 103.297 91.675C104.947 93.1917 105.772 95.3583 105.772 98.175C105.772 99.5917 105.556 100.85 105.122 101.95C104.706 103.033 104.097 103.95 103.297 104.7C102.497 105.45 101.514 106.025 100.347 106.425C99.1808 106.808 97.8391 107 96.3225 107H91.4475ZM93.2975 103.825H96.0975C97.0475 103.825 97.8725 103.708 98.5725 103.475C99.2725 103.242 99.8558 102.892 100.322 102.425C100.789 101.958 101.139 101.375 101.372 100.675C101.606 99.9583 101.722 99.125 101.722 98.175C101.722 96.275 101.247 94.8667 100.297 93.95C99.3641 93.0167 97.9641 92.55 96.0975 92.55H93.2975V103.825ZM110.358 107.2C109.741 107.2 109.266 107.025 108.933 106.675C108.616 106.308 108.458 105.8 108.458 105.15V96.6C108.458 95.9333 108.616 95.425 108.933 95.075C109.266 94.7083 109.741 94.525 110.358 94.525C110.958 94.525 111.416 94.7083 111.733 95.075C112.066 95.425 112.233 95.9333 112.233 96.6V105.15C112.233 105.8 112.074 106.308 111.758 106.675C111.441 107.025 110.974 107.2 110.358 107.2ZM110.358 92.475C109.658 92.475 109.116 92.3167 108.733 92C108.366 91.6667 108.183 91.2 108.183 90.6C108.183 89.9833 108.366 89.5167 108.733 89.2C109.116 88.8667 109.658 88.7 110.358 88.7C111.058 88.7 111.591 88.8667 111.958 89.2C112.324 89.5167 112.508 89.9833 112.508 90.6C112.508 91.2 112.324 91.6667 111.958 92C111.591 92.3167 111.058 92.475 110.358 92.475ZM117.097 107.225C116.481 107.225 116.006 107.058 115.672 106.725C115.356 106.392 115.197 105.917 115.197 105.3V96.425C115.197 95.8083 115.356 95.3417 115.672 95.025C116.006 94.6917 116.464 94.525 117.047 94.525C117.647 94.525 118.106 94.6917 118.422 95.025C118.739 95.3417 118.897 95.8083 118.897 96.425V98.025L118.622 97.025C118.956 96.2583 119.472 95.6417 120.172 95.175C120.872 94.7083 121.697 94.475 122.647 94.475C123.597 94.475 124.389 94.7 125.022 95.15C125.656 95.6 126.106 96.2917 126.372 97.225H126.022C126.389 96.375 126.947 95.7083 127.697 95.225C128.464 94.725 129.339 94.475 130.322 94.475C131.272 94.475 132.047 94.6667 132.647 95.05C133.264 95.4167 133.722 95.9833 134.022 96.75C134.322 97.5 134.472 98.4583 134.472 99.625V105.3C134.472 105.917 134.306 106.392 133.972 106.725C133.656 107.058 133.197 107.225 132.597 107.225C131.981 107.225 131.506 107.058 131.172 106.725C130.856 106.392 130.697 105.917 130.697 105.3V99.75C130.697 98.9333 130.564 98.3417 130.297 97.975C130.047 97.5917 129.614 97.4 128.997 97.4C128.281 97.4 127.722 97.65 127.322 98.15C126.922 98.65 126.722 99.3583 126.722 100.275V105.3C126.722 105.917 126.556 106.392 126.222 106.725C125.906 107.058 125.447 107.225 124.847 107.225C124.247 107.225 123.781 107.058 123.447 106.725C123.114 106.392 122.947 105.917 122.947 105.3V99.75C122.947 98.9333 122.814 98.3417 122.547 97.975C122.297 97.5917 121.864 97.4 121.247 97.4C120.531 97.4 119.972 97.65 119.572 98.15C119.172 98.65 118.972 99.3583 118.972 100.275V105.3C118.972 106.583 118.347 107.225 117.097 107.225ZM141.514 107.275C140.614 107.275 139.806 107.1 139.089 106.75C138.372 106.4 137.814 105.925 137.414 105.325C137.014 104.725 136.814 104.05 136.814 103.3C136.814 102.4 137.047 101.692 137.514 101.175C137.981 100.642 138.739 100.267 139.789 100.05C140.839 99.8167 142.231 99.7 143.964 99.7H145.289V101.65H143.989C143.139 101.65 142.447 101.7 141.914 101.8C141.397 101.883 141.022 102.033 140.789 102.25C140.572 102.467 140.464 102.767 140.464 103.15C140.464 103.617 140.622 104 140.939 104.3C141.272 104.6 141.747 104.75 142.364 104.75C142.847 104.75 143.272 104.642 143.639 104.425C144.022 104.192 144.322 103.883 144.539 103.5C144.756 103.1 144.864 102.65 144.864 102.15V99.275C144.864 98.5417 144.697 98.025 144.364 97.725C144.031 97.4083 143.464 97.25 142.664 97.25C142.214 97.25 141.722 97.3083 141.189 97.425C140.672 97.525 140.097 97.7 139.464 97.95C139.097 98.1167 138.772 98.1583 138.489 98.075C138.206 97.975 137.989 97.8083 137.839 97.575C137.689 97.325 137.614 97.0583 137.614 96.775C137.614 96.475 137.697 96.1917 137.864 95.925C138.031 95.6417 138.306 95.4333 138.689 95.3C139.472 94.9833 140.206 94.7667 140.889 94.65C141.589 94.5333 142.231 94.475 142.814 94.475C144.097 94.475 145.147 94.6667 145.964 95.05C146.797 95.4167 147.422 95.9917 147.839 96.775C148.256 97.5417 148.464 98.5333 148.464 99.75V105.3C148.464 105.917 148.314 106.392 148.014 106.725C147.714 107.058 147.281 107.225 146.714 107.225C146.147 107.225 145.706 107.058 145.389 106.725C145.089 106.392 144.939 105.917 144.939 105.3V104.375L145.114 104.525C145.014 105.092 144.797 105.583 144.464 106C144.147 106.4 143.739 106.717 143.239 106.95C142.739 107.167 142.164 107.275 141.514 107.275ZM155.98 107.275C155.247 107.275 154.488 107.208 153.705 107.075C152.938 106.942 152.238 106.717 151.605 106.4C151.272 106.233 151.03 106.025 150.88 105.775C150.747 105.508 150.688 105.242 150.705 104.975C150.722 104.708 150.805 104.467 150.955 104.25C151.122 104.033 151.33 103.892 151.58 103.825C151.847 103.742 152.138 103.767 152.455 103.9C153.138 104.183 153.763 104.383 154.33 104.5C154.897 104.617 155.455 104.675 156.005 104.675C156.722 104.675 157.238 104.567 157.555 104.35C157.888 104.117 158.055 103.817 158.055 103.45C158.055 103.117 157.947 102.867 157.73 102.7C157.513 102.533 157.197 102.417 156.78 102.35L154.155 101.875C153.122 101.692 152.322 101.317 151.755 100.75C151.205 100.167 150.93 99.425 150.93 98.525C150.93 97.6917 151.163 96.975 151.63 96.375C152.097 95.7583 152.738 95.2917 153.555 94.975C154.388 94.6417 155.33 94.475 156.38 94.475C157.13 94.475 157.822 94.5417 158.455 94.675C159.088 94.8083 159.697 95.025 160.28 95.325C160.58 95.475 160.788 95.675 160.905 95.925C161.038 96.175 161.08 96.4333 161.03 96.7C160.997 96.9667 160.897 97.2083 160.73 97.425C160.563 97.6417 160.347 97.7833 160.08 97.85C159.83 97.9167 159.538 97.8833 159.205 97.75C158.672 97.5 158.18 97.325 157.73 97.225C157.28 97.1083 156.847 97.05 156.43 97.05C155.68 97.05 155.138 97.175 154.805 97.425C154.472 97.6583 154.305 97.9583 154.305 98.325C154.305 98.6083 154.397 98.85 154.58 99.05C154.78 99.2333 155.08 99.3583 155.48 99.425L158.105 99.9C159.188 100.083 160.013 100.45 160.58 101C161.147 101.533 161.43 102.267 161.43 103.2C161.43 104.467 160.93 105.467 159.93 106.2C158.947 106.917 157.63 107.275 155.98 107.275ZM25.3163 141.275C24.0163 141.275 22.883 141.067 21.9163 140.65C20.9663 140.233 20.233 139.658 19.7163 138.925C19.1996 138.192 18.9413 137.333 18.9413 136.35C18.9413 135.783 19.0163 135.258 19.1663 134.775C19.333 134.275 19.5663 133.825 19.8663 133.425C20.183 133.008 20.558 132.625 20.9913 132.275C21.4246 131.908 21.908 131.575 22.4413 131.275L23.3163 130.775L22.7663 131.55C22.0663 130.883 21.5496 130.217 21.2163 129.55C20.8996 128.883 20.7413 128.2 20.7413 127.5C20.7413 126.633 20.958 125.867 21.3913 125.2C21.8246 124.533 22.433 124.017 23.2163 123.65C23.9996 123.283 24.908 123.1 25.9413 123.1C27.3746 123.1 28.508 123.467 29.3413 124.2C30.1746 124.917 30.5913 125.892 30.5913 127.125C30.5913 127.775 30.4663 128.392 30.2163 128.975C29.9663 129.542 29.5746 130.083 29.0413 130.6C28.508 131.1 27.808 131.567 26.9413 132L26.9663 131.2L30.9663 135.3H30.1413C30.358 134.967 30.5413 134.6 30.6913 134.2C30.858 133.8 30.9996 133.375 31.1163 132.925C31.233 132.475 31.3246 132.017 31.3913 131.55C31.4913 131.05 31.6663 130.675 31.9163 130.425C32.183 130.175 32.558 130.05 33.0413 130.05C33.558 130.05 33.9413 130.2 34.1913 130.5C34.458 130.783 34.558 131.192 34.4913 131.725C34.3913 132.475 34.2413 133.192 34.0413 133.875C33.8413 134.558 33.5913 135.2 33.2913 135.8C33.008 136.383 32.683 136.925 32.3163 137.425L32.2913 136.55L34.5413 138.75C34.9413 139.117 35.1413 139.492 35.1413 139.875C35.1413 140.258 34.9913 140.583 34.6913 140.85C34.408 141.1 34.0163 141.225 33.5163 141.225C33.0663 141.225 32.6996 141.142 32.4163 140.975C32.1496 140.792 31.8413 140.533 31.4913 140.2L30.2163 138.875H31.0413C30.2913 139.608 29.4163 140.192 28.4163 140.625C27.433 141.058 26.3996 141.275 25.3163 141.275ZM25.5413 138.35C26.258 138.35 26.8913 138.217 27.4413 137.95C28.008 137.683 28.533 137.292 29.0163 136.775L28.9163 137.675L23.8413 132.625L25.4413 132.725L24.7663 133.1C24.283 133.367 23.883 133.65 23.5663 133.95C23.2663 134.233 23.0413 134.55 22.8913 134.9C22.758 135.25 22.6913 135.633 22.6913 136.05C22.6913 136.767 22.9413 137.333 23.4413 137.75C23.9413 138.15 24.6413 138.35 25.5413 138.35ZM25.9413 125.675C25.408 125.675 24.983 125.833 24.6663 126.15C24.3496 126.45 24.1913 126.867 24.1913 127.4C24.1913 127.683 24.2413 127.958 24.3413 128.225C24.4413 128.475 24.5996 128.75 24.8163 129.05C25.0496 129.333 25.3663 129.683 25.7663 130.1L24.9663 130.05C25.6163 129.717 26.1246 129.408 26.4913 129.125C26.8746 128.842 27.1496 128.55 27.3163 128.25C27.483 127.95 27.5663 127.625 27.5663 127.275C27.5663 126.742 27.4163 126.342 27.1163 126.075C26.833 125.808 26.4413 125.675 25.9413 125.675ZM46.9517 141C46.3183 141 45.8267 140.825 45.4767 140.475C45.1433 140.125 44.9767 139.642 44.9767 139.025V125.3C44.9767 124.65 45.1433 124.158 45.4767 123.825C45.81 123.492 46.2933 123.325 46.9267 123.325C47.5433 123.325 48.0183 123.492 48.3517 123.825C48.685 124.158 48.8517 124.65 48.8517 125.3V137.725H55.5517C56.085 137.725 56.4933 137.867 56.7767 138.15C57.0767 138.433 57.2267 138.833 57.2267 139.35C57.2267 139.883 57.0767 140.292 56.7767 140.575C56.4933 140.858 56.085 141 55.5517 141H46.9517ZM63.1327 141.275C62.2327 141.275 61.4244 141.1 60.7077 140.75C59.991 140.4 59.4327 139.925 59.0327 139.325C58.6327 138.725 58.4327 138.05 58.4327 137.3C58.4327 136.4 58.666 135.692 59.1327 135.175C59.5994 134.642 60.3577 134.267 61.4077 134.05C62.4577 133.817 63.8494 133.7 65.5827 133.7H66.9077V135.65H65.6077C64.7577 135.65 64.066 135.7 63.5327 135.8C63.016 135.883 62.641 136.033 62.4077 136.25C62.191 136.467 62.0827 136.767 62.0827 137.15C62.0827 137.617 62.241 138 62.5577 138.3C62.891 138.6 63.366 138.75 63.9827 138.75C64.466 138.75 64.891 138.642 65.2577 138.425C65.641 138.192 65.941 137.883 66.1577 137.5C66.3744 137.1 66.4827 136.65 66.4827 136.15V133.275C66.4827 132.542 66.316 132.025 65.9827 131.725C65.6494 131.408 65.0827 131.25 64.2827 131.25C63.8327 131.25 63.341 131.308 62.8077 131.425C62.291 131.525 61.716 131.7 61.0827 131.95C60.716 132.117 60.391 132.158 60.1077 132.075C59.8244 131.975 59.6077 131.808 59.4577 131.575C59.3077 131.325 59.2327 131.058 59.2327 130.775C59.2327 130.475 59.316 130.192 59.4827 129.925C59.6494 129.642 59.9244 129.433 60.3077 129.3C61.091 128.983 61.8244 128.767 62.5077 128.65C63.2077 128.533 63.8494 128.475 64.4327 128.475C65.716 128.475 66.766 128.667 67.5827 129.05C68.416 129.417 69.041 129.992 69.4577 130.775C69.8744 131.542 70.0827 132.533 70.0827 133.75V139.3C70.0827 139.917 69.9327 140.392 69.6327 140.725C69.3327 141.058 68.8994 141.225 68.3327 141.225C67.766 141.225 67.3244 141.058 67.0077 140.725C66.7077 140.392 66.5577 139.917 66.5577 139.3V138.375L66.7327 138.525C66.6327 139.092 66.416 139.583 66.0827 140C65.766 140.4 65.3577 140.717 64.8577 140.95C64.3577 141.167 63.7827 141.275 63.1327 141.275ZM77.5987 141.275C76.8654 141.275 76.1071 141.208 75.3237 141.075C74.5571 140.942 73.8571 140.717 73.2237 140.4C72.8904 140.233 72.6487 140.025 72.4987 139.775C72.3654 139.508 72.3071 139.242 72.3237 138.975C72.3404 138.708 72.4237 138.467 72.5737 138.25C72.7404 138.033 72.9487 137.892 73.1987 137.825C73.4654 137.742 73.7571 137.767 74.0737 137.9C74.7571 138.183 75.3821 138.383 75.9487 138.5C76.5154 138.617 77.0737 138.675 77.6237 138.675C78.3404 138.675 78.8571 138.567 79.1737 138.35C79.5071 138.117 79.6737 137.817 79.6737 137.45C79.6737 137.117 79.5654 136.867 79.3487 136.7C79.1321 136.533 78.8154 136.417 78.3987 136.35L75.7737 135.875C74.7404 135.692 73.9404 135.317 73.3737 134.75C72.8237 134.167 72.5487 133.425 72.5487 132.525C72.5487 131.692 72.7821 130.975 73.2487 130.375C73.7154 129.758 74.3571 129.292 75.1737 128.975C76.0071 128.642 76.9487 128.475 77.9987 128.475C78.7487 128.475 79.4404 128.542 80.0737 128.675C80.7071 128.808 81.3154 129.025 81.8987 129.325C82.1987 129.475 82.4071 129.675 82.5237 129.925C82.6571 130.175 82.6987 130.433 82.6487 130.7C82.6154 130.967 82.5154 131.208 82.3487 131.425C82.1821 131.642 81.9654 131.783 81.6987 131.85C81.4487 131.917 81.1571 131.883 80.8237 131.75C80.2904 131.5 79.7987 131.325 79.3487 131.225C78.8987 131.108 78.4654 131.05 78.0487 131.05C77.2987 131.05 76.7571 131.175 76.4237 131.425C76.0904 131.658 75.9237 131.958 75.9237 132.325C75.9237 132.608 76.0154 132.85 76.1987 133.05C76.3987 133.233 76.6987 133.358 77.0987 133.425L79.7237 133.9C80.8071 134.083 81.6321 134.45 82.1987 135C82.7654 135.533 83.0487 136.267 83.0487 137.2C83.0487 138.467 82.5487 139.467 81.5487 140.2C80.5654 140.917 79.2487 141.275 77.5987 141.275ZM99.8358 141.225C99.3025 141.225 98.8608 141.108 98.5108 140.875C98.1775 140.625 97.9025 140.25 97.6858 139.75L91.3858 125.75C91.1525 125.25 91.0858 124.808 91.1858 124.425C91.2858 124.025 91.4942 123.717 91.8108 123.5C92.1275 123.267 92.5108 123.15 92.9608 123.15C93.5275 123.15 93.9608 123.283 94.2608 123.55C94.5608 123.8 94.8108 124.175 95.0108 124.675L100.536 137.45H99.2858L104.811 124.65C105.028 124.15 105.286 123.775 105.586 123.525C105.886 123.275 106.303 123.15 106.836 123.15C107.286 123.15 107.653 123.267 107.936 123.5C108.236 123.717 108.419 124.025 108.486 124.425C108.569 124.808 108.503 125.25 108.286 125.75L101.986 139.75C101.753 140.25 101.469 140.625 101.136 140.875C100.819 141.108 100.386 141.225 99.8358 141.225ZM113.63 141.275C112.596 141.275 111.738 141.083 111.055 140.7C110.371 140.317 109.863 139.742 109.53 138.975C109.213 138.192 109.055 137.225 109.055 136.075V130.425C109.055 129.792 109.213 129.317 109.53 129C109.863 128.683 110.33 128.525 110.93 128.525C111.53 128.525 111.996 128.683 112.33 129C112.663 129.317 112.83 129.792 112.83 130.425V136.175C112.83 136.908 112.98 137.458 113.28 137.825C113.58 138.175 114.055 138.35 114.705 138.35C115.421 138.35 116.005 138.1 116.455 137.6C116.921 137.083 117.155 136.408 117.155 135.575V130.425C117.155 129.792 117.313 129.317 117.63 129C117.963 128.683 118.43 128.525 119.03 128.525C119.646 128.525 120.113 128.683 120.43 129C120.763 129.317 120.93 129.792 120.93 130.425V139.3C120.93 140.583 120.321 141.225 119.105 141.225C118.505 141.225 118.046 141.058 117.73 140.725C117.413 140.392 117.255 139.917 117.255 139.3V137.625L117.63 138.6C117.263 139.45 116.738 140.108 116.055 140.575C115.371 141.042 114.563 141.275 113.63 141.275ZM130.226 141.275C128.776 141.275 127.526 141.017 126.476 140.5C125.443 139.967 124.643 139.225 124.076 138.275C123.526 137.308 123.251 136.175 123.251 134.875C123.251 133.608 123.518 132.5 124.051 131.55C124.584 130.583 125.326 129.833 126.276 129.3C127.243 128.75 128.334 128.475 129.551 128.475C130.434 128.475 131.234 128.625 131.951 128.925C132.668 129.208 133.284 129.625 133.801 130.175C134.318 130.708 134.709 131.367 134.976 132.15C135.243 132.917 135.376 133.775 135.376 134.725C135.376 135.042 135.276 135.283 135.076 135.45C134.876 135.6 134.584 135.675 134.201 135.675H126.351V133.725H132.651L132.251 134.075C132.251 133.392 132.151 132.825 131.951 132.375C131.751 131.908 131.459 131.558 131.076 131.325C130.709 131.092 130.251 130.975 129.701 130.975C129.084 130.975 128.559 131.117 128.126 131.4C127.693 131.683 127.359 132.092 127.126 132.625C126.893 133.158 126.776 133.8 126.776 134.55V134.75C126.776 136.017 127.068 136.95 127.651 137.55C128.251 138.15 129.134 138.45 130.301 138.45C130.701 138.45 131.159 138.4 131.676 138.3C132.193 138.2 132.676 138.042 133.126 137.825C133.509 137.642 133.851 137.583 134.151 137.65C134.451 137.7 134.684 137.833 134.851 138.05C135.018 138.267 135.109 138.517 135.126 138.8C135.159 139.083 135.101 139.367 134.951 139.65C134.801 139.917 134.551 140.142 134.201 140.325C133.634 140.642 132.993 140.875 132.276 141.025C131.576 141.192 130.893 141.275 130.226 141.275ZM141.997 141.275C140.513 141.275 139.405 140.867 138.672 140.05C137.938 139.217 137.572 137.983 137.572 136.35V125.075C137.572 124.442 137.73 123.967 138.047 123.65C138.38 123.317 138.855 123.15 139.472 123.15C140.072 123.15 140.53 123.317 140.847 123.65C141.18 123.967 141.347 124.442 141.347 125.075V136.2C141.347 136.883 141.488 137.392 141.772 137.725C142.072 138.042 142.463 138.2 142.947 138.2C143.08 138.2 143.205 138.192 143.322 138.175C143.438 138.158 143.563 138.15 143.697 138.15C143.963 138.117 144.147 138.2 144.247 138.4C144.363 138.583 144.422 138.958 144.422 139.525C144.422 140.025 144.322 140.408 144.122 140.675C143.922 140.925 143.613 141.092 143.197 141.175C143.03 141.192 142.838 141.208 142.622 141.225C142.405 141.258 142.197 141.275 141.997 141.275ZM151.556 141.275C150.406 141.275 149.439 141.083 148.656 140.7C147.889 140.317 147.314 139.758 146.931 139.025C146.564 138.292 146.381 137.367 146.381 136.25V131.55H145.331C144.864 131.55 144.497 131.425 144.231 131.175C143.981 130.925 143.856 130.583 143.856 130.15C143.856 129.683 143.981 129.333 144.231 129.1C144.497 128.85 144.864 128.725 145.331 128.725H146.381V126.825C146.381 126.192 146.547 125.717 146.881 125.4C147.214 125.067 147.681 124.9 148.281 124.9C148.897 124.9 149.364 125.067 149.681 125.4C149.997 125.717 150.156 126.192 150.156 126.825V128.725H152.531C152.997 128.725 153.356 128.85 153.606 129.1C153.856 129.333 153.981 129.683 153.981 130.15C153.981 130.583 153.856 130.925 153.606 131.175C153.356 131.425 152.997 131.55 152.531 131.55H150.156V136.1C150.156 136.8 150.314 137.325 150.631 137.675C150.964 138.025 151.489 138.2 152.206 138.2C152.456 138.2 152.689 138.175 152.906 138.125C153.122 138.075 153.322 138.042 153.506 138.025C153.739 138.008 153.931 138.083 154.081 138.25C154.231 138.4 154.306 138.742 154.306 139.275C154.306 139.675 154.239 140.025 154.106 140.325C153.972 140.625 153.739 140.842 153.406 140.975C153.189 141.058 152.889 141.125 152.506 141.175C152.139 141.242 151.822 141.275 151.556 141.275ZM159.788 141.275C158.888 141.275 158.08 141.1 157.363 140.75C156.646 140.4 156.088 139.925 155.688 139.325C155.288 138.725 155.088 138.05 155.088 137.3C155.088 136.4 155.321 135.692 155.788 135.175C156.255 134.642 157.013 134.267 158.063 134.05C159.113 133.817 160.505 133.7 162.238 133.7H163.563V135.65H162.263C161.413 135.65 160.721 135.7 160.188 135.8C159.671 135.883 159.296 136.033 159.063 136.25C158.846 136.467 158.738 136.767 158.738 137.15C158.738 137.617 158.896 138 159.213 138.3C159.546 138.6 160.021 138.75 160.638 138.75C161.121 138.75 161.546 138.642 161.913 138.425C162.296 138.192 162.596 137.883 162.813 137.5C163.03 137.1 163.138 136.65 163.138 136.15V133.275C163.138 132.542 162.971 132.025 162.638 131.725C162.305 131.408 161.738 131.25 160.938 131.25C160.488 131.25 159.996 131.308 159.463 131.425C158.946 131.525 158.371 131.7 157.738 131.95C157.371 132.117 157.046 132.158 156.763 132.075C156.48 131.975 156.263 131.808 156.113 131.575C155.963 131.325 155.888 131.058 155.888 130.775C155.888 130.475 155.971 130.192 156.138 129.925C156.305 129.642 156.58 129.433 156.963 129.3C157.746 128.983 158.48 128.767 159.163 128.65C159.863 128.533 160.505 128.475 161.088 128.475C162.371 128.475 163.421 128.667 164.238 129.05C165.071 129.417 165.696 129.992 166.113 130.775C166.53 131.542 166.738 132.533 166.738 133.75V139.3C166.738 139.917 166.588 140.392 166.288 140.725C165.988 141.058 165.555 141.225 164.988 141.225C164.421 141.225 163.98 141.058 163.663 140.725C163.363 140.392 163.213 139.917 163.213 139.3V138.375L163.388 138.525C163.288 139.092 163.071 139.583 162.738 140C162.421 140.4 162.013 140.717 161.513 140.95C161.013 141.167 160.438 141.275 159.788 141.275ZM174.254 141.275C173.521 141.275 172.762 141.208 171.979 141.075C171.212 140.942 170.512 140.717 169.879 140.4C169.546 140.233 169.304 140.025 169.154 139.775C169.021 139.508 168.962 139.242 168.979 138.975C168.996 138.708 169.079 138.467 169.229 138.25C169.396 138.033 169.604 137.892 169.854 137.825C170.121 137.742 170.412 137.767 170.729 137.9C171.412 138.183 172.037 138.383 172.604 138.5C173.171 138.617 173.729 138.675 174.279 138.675C174.996 138.675 175.512 138.567 175.829 138.35C176.162 138.117 176.329 137.817 176.329 137.45C176.329 137.117 176.221 136.867 176.004 136.7C175.787 136.533 175.471 136.417 175.054 136.35L172.429 135.875C171.396 135.692 170.596 135.317 170.029 134.75C169.479 134.167 169.204 133.425 169.204 132.525C169.204 131.692 169.437 130.975 169.904 130.375C170.371 129.758 171.012 129.292 171.829 128.975C172.662 128.642 173.604 128.475 174.654 128.475C175.404 128.475 176.096 128.542 176.729 128.675C177.362 128.808 177.971 129.025 178.554 129.325C178.854 129.475 179.062 129.675 179.179 129.925C179.312 130.175 179.354 130.433 179.304 130.7C179.271 130.967 179.171 131.208 179.004 131.425C178.837 131.642 178.621 131.783 178.354 131.85C178.104 131.917 177.812 131.883 177.479 131.75C176.946 131.5 176.454 131.325 176.004 131.225C175.554 131.108 175.121 131.05 174.704 131.05C173.954 131.05 173.412 131.175 173.079 131.425C172.746 131.658 172.579 131.958 172.579 132.325C172.579 132.608 172.671 132.85 172.854 133.05C173.054 133.233 173.354 133.358 173.754 133.425L176.379 133.9C177.462 134.083 178.287 134.45 178.854 135C179.421 135.533 179.704 136.267 179.704 137.2C179.704 138.467 179.204 139.467 178.204 140.2C177.221 140.917 175.904 141.275 174.254 141.275Z" fill="#333333"/>
<path d="M168.811 167.49C160.589 168.702 154.685 179.299 146.593 179.873C144.564 179.891 142.68 179.519 141.076 178.783C138.12 177.687 135.215 176.429 131.762 176.134C128.31 175.838 124.216 176.641 121.204 179.015C118.192 181.389 116.905 184.988 114.081 187.638C110.146 191.319 104.051 192.417 99.2839 191.749C94.5166 191.08 90.6224 189.011 86.2898 187.611C81.9572 186.211 76.7285 185.528 71.6135 187.549C70.5496 187.972 69.4142 188.519 68.4243 188.384C67.7001 188.216 67.1131 187.852 66.737 187.337C64.5908 185.018 62.8265 182.433 61.4747 179.629C60.4674 177.555 59.6641 175.329 57.9218 173.723C56.1796 172.116 53.2078 171.284 50.2353 172.393C47.2627 173.503 44.6308 176.326 41.8903 176.052C40.8509 175.848 39.9493 175.426 39.2548 174.82C36.3488 172.901 32.0067 171.996 27.7981 173.686C23.5895 175.375 20.4701 180.315 22.765 182.748C22.9046 182.932 23.0996 183.078 23.3369 183.174C23.5742 183.271 23.8485 183.316 24.1412 183.308C24.4701 183.237 24.7962 183.112 25.0991 182.94C25.4021 182.768 25.6754 182.554 25.902 182.311C27.3771 180.984 28.6863 179.441 30.6371 178.668C31.169 178.444 31.7256 178.331 32.2501 178.34C32.7745 178.349 33.2479 178.479 33.622 178.718C34.8255 179.598 33.8675 181.336 32.4625 182.298C32.1231 182.52 31.7638 182.713 31.392 182.874C30.7016 183.173 30.0594 183.583 29.5119 184.075C28.9643 184.567 28.5252 185.129 28.2264 185.719C27.9276 186.309 27.7765 186.913 27.7841 187.487C27.7917 188.061 27.9579 188.592 28.2704 189.039L28.432 189.229C28.7321 189.579 29.147 189.842 29.6445 189.998C38.1824 192.781 37.2993 181.465 49.2088 189.029C49.725 189.339 50.0372 189.828 50.0899 190.41C50.2128 192.178 49.4453 194.105 49.1253 195.947C48.8053 197.79 48.9554 199.919 50.6721 200.801C52.3889 201.682 55.1724 201.101 56.3843 202.382C57.2006 203.258 56.9651 204.671 57.3073 205.801C57.7993 207.449 59.4993 208.446 61.3629 209.014C63.5829 209.678 66.0926 209.869 68.7139 209.572C71.3353 209.276 74.0042 208.499 76.5315 207.297C77.9404 206.617 79.3453 205.783 80.8323 205.523C82.7092 205.181 84.3065 205.786 85.756 206.427C92.1772 209.198 99.3573 212.463 107.539 209.709C118.395 206.063 125.131 193.568 136.113 191.035C139.622 190.227 142.958 190.635 146.335 190.644C149.712 190.653 153.575 190.117 156.543 187.937C161.095 184.613 162.753 178.149 168.124 176.915C171.924 176.042 174.402 179.841 171.898 182.702C175.753 179.127 178.057 174.228 176.228 170.592C175.661 169.447 174.667 168.55 173.357 168.002C172.047 167.455 170.473 167.277 168.811 167.49Z" fill="#83DBF2"/>
<g opacity="0.8">
<path d="M168.811 167.49C160.589 168.702 154.685 179.299 146.593 179.873C144.564 179.891 142.68 179.519 141.076 178.783C138.12 177.687 135.215 176.429 131.762 176.134C128.31 175.838 124.216 176.641 121.204 179.015C118.192 181.389 116.905 184.988 114.081 187.638C110.146 191.319 104.051 192.417 99.2839 191.749C94.5166 191.08 90.6224 189.011 86.2898 187.611C81.9572 186.211 76.7285 185.528 71.6135 187.549C70.5496 187.972 69.4142 188.519 68.4243 188.384C67.7001 188.216 67.1131 187.852 66.737 187.337C64.5908 185.018 62.8265 182.433 61.4747 179.629C60.4674 177.555 59.6641 175.329 57.9218 173.723C56.1796 172.116 53.2078 171.284 50.2353 172.393C47.2627 173.503 44.6308 176.326 41.8903 176.052C40.8509 175.848 39.9493 175.426 39.2548 174.82C36.3488 172.901 32.0067 171.996 27.7981 173.686C23.5895 175.375 20.4701 180.315 22.765 182.748C22.9046 182.932 23.0996 183.078 23.3369 183.174C23.5742 183.271 23.8485 183.316 24.1412 183.308C24.4701 183.237 24.7962 183.112 25.0991 182.94C25.4021 182.768 25.6754 182.554 25.902 182.311C27.3771 180.984 28.6863 179.441 30.6371 178.668C31.169 178.444 31.7256 178.331 32.2501 178.34C32.7745 178.349 33.2479 178.479 33.622 178.718C34.8255 179.598 33.8675 181.336 32.4625 182.298C32.1231 182.52 31.7638 182.713 31.392 182.874C30.7016 183.173 30.0594 183.583 29.5119 184.075C28.9643 184.567 28.5252 185.129 28.2264 185.719C27.9276 186.309 27.7765 186.913 27.7841 187.487C27.7917 188.061 27.9579 188.592 28.2704 189.039L28.432 189.229C28.7321 189.579 29.147 189.842 29.6445 189.998C38.1824 192.781 37.2993 181.465 49.2088 189.029C49.725 189.339 50.0372 189.828 50.0899 190.41C50.2128 192.178 49.4453 194.105 49.1253 195.947C48.8053 197.79 48.9554 199.919 50.6721 200.801C52.3889 201.682 55.1724 201.101 56.3843 202.382C57.2006 203.258 56.9651 204.671 57.3073 205.801C57.7993 207.449 59.4993 208.446 61.3629 209.014C63.5829 209.678 66.0926 209.869 68.7139 209.572C71.3353 209.276 74.0042 208.499 76.5315 207.297C77.9404 206.617 79.3453 205.783 80.8323 205.523C82.7092 205.181 84.3065 205.786 85.756 206.427C92.1772 209.198 99.3573 212.463 107.539 209.709C118.395 206.063 125.131 193.568 136.113 191.035C139.622 190.227 142.958 190.635 146.335 190.644C149.712 190.653 153.575 190.117 156.543 187.937C161.095 184.613 162.753 178.149 168.124 176.915C171.924 176.042 174.402 179.841 171.898 182.702C175.753 179.127 178.057 174.228 176.228 170.592C175.661 169.447 174.667 168.55 173.357 168.002C172.047 167.455 170.473 167.277 168.811 167.49Z" fill="#83DBF2"/>
</g>
<path d="M116.301 200.779C116.166 200.927 116.023 201.071 115.872 201.209C115.581 201.493 115.148 201.897 114.553 202.423C112.959 203.899 111.205 205.254 109.329 206.457C108.012 207.28 106.593 207.941 105.133 208.409C104.314 208.661 103.488 208.821 102.678 208.885C101.816 208.975 100.972 208.98 100.163 208.902C96.8299 208.499 94.0795 206.76 91.2921 205.061C89.9374 204.22 88.4649 203.5 86.8903 202.91C85.4398 202.351 83.7591 202.123 81.9756 202.243C80.3517 202.397 78.6946 202.79 77.0798 203.406C75.5407 203.936 74.106 204.494 72.781 204.909C70.6679 205.642 68.5074 205.878 66.5688 205.587C66.0592 205.482 65.5914 205.31 65.1798 205.076C65.0334 204.999 64.9055 204.903 64.7993 204.79C65.344 205.1 65.9662 205.324 66.6449 205.453C68.5661 205.685 70.6822 205.414 72.743 204.673C74.0545 204.252 75.4756 203.686 77.0211 203.132C78.6766 202.493 80.3769 202.081 82.0452 201.914C83.8893 201.78 85.6286 202.009 87.1284 202.583C88.7291 203.174 90.2229 203.902 91.5922 204.758C94.459 206.42 97.1134 208.183 100.32 208.59C101.099 208.674 101.914 208.675 102.747 208.592C103.525 208.534 104.321 208.384 105.109 208.145C106.534 207.703 107.922 207.072 109.212 206.278C111.082 205.105 112.842 203.791 114.46 202.36L115.808 201.201C115.955 201.047 116.12 200.905 116.301 200.779Z" fill="#83DBF2"/>
<path d="M122.821 196.183C122.153 196.78 121.4 197.305 120.591 197.738C119.843 198.26 119.03 198.698 118.182 199.034C118.846 198.434 119.6 197.908 120.412 197.479C121.16 196.957 121.973 196.519 122.821 196.183Z" fill="#83DBF2"/>
<path d="M51.8844 196.659C52.0684 197.21 52.3641 197.71 52.7612 198.141C53.2604 198.49 53.8426 198.756 54.4882 198.932C54.503 198.96 54.1998 199.037 53.7736 198.997C53.2321 198.931 52.7642 198.733 52.4204 198.424C52.0688 198.12 51.8516 197.717 51.7916 197.256C51.7598 196.903 51.8326 196.672 51.8844 196.659Z" fill="#83DBF2"/>
<path d="M33.07 184.161C33.135 184.341 33.1858 184.527 33.2222 184.718C33.3988 185.197 33.7323 185.596 34.1927 185.88C34.8664 186.302 35.7865 186.438 36.7634 186.26C37.861 186.046 38.9597 185.284 40.1238 184.515C40.7026 184.126 41.3226 183.792 41.9665 183.524C42.5809 183.279 43.2162 183.136 43.8307 183.103C44.8443 183.079 45.7888 183.251 46.5957 183.606C47.1384 183.828 47.6487 184.091 48.1223 184.39C48.3125 184.482 48.4746 184.603 48.6021 184.75C48.5557 184.811 47.7963 184.353 46.4179 183.843C45.627 183.538 44.7192 183.4 43.7535 183.436C43.1924 183.473 42.6143 183.61 42.0566 183.838C41.4499 184.09 40.8658 184.404 40.3209 184.772C39.1815 185.513 37.9953 186.35 36.7456 186.575C36.2157 186.666 35.6978 186.671 35.2217 186.588C34.7456 186.505 34.3206 186.337 33.9713 186.092C33.4957 185.772 33.1789 185.317 33.0574 184.779C33.0285 184.632 33.0219 184.478 33.0376 184.32C33.04 184.268 33.0509 184.214 33.07 184.161Z" fill="#83DBF2"/>
</svg>
